<svg version="1.1" id="Layer_1" xmlns="http://www.w3.org/2000/svg" xmlns:xlink="http://www.w3.org/1999/xlink" x="0px" y="0px"
	 width="100%" viewBox="0 0 254 177" enable-background="new 0 0 254 177" xml:space="preserve">
<path fill="#FFFEFE" opacity="1.000000" stroke="none" 
	d="
M183.000000,178.000000 
	C122.000000,178.000000 61.500008,178.000000 1.000008,178.000000 
	C1.000005,119.000008 1.000005,60.000015 1.000003,1.000016 
	C85.666656,1.000011 170.333313,1.000011 254.999969,1.000005 
	C254.999985,59.999985 254.999985,118.999969 255.000000,177.999969 
	C231.166672,178.000000 207.333328,178.000000 183.000000,178.000000 
M176.670654,150.881973 
	C176.192139,144.249542 176.141861,137.545380 175.048431,131.015930 
	C174.527664,127.906029 172.616333,124.482620 170.287399,122.339561 
	C165.904846,118.306808 160.626770,115.263405 156.022995,111.444618 
	C154.723389,110.366615 153.719971,107.951965 153.879852,106.274170 
	C154.399094,100.825363 155.504181,95.431183 156.414078,90.021088 
	C157.764877,81.989632 159.286926,73.983673 160.458786,65.926537 
	C161.307846,60.088779 160.464355,54.438225 155.546875,50.498222 
	C150.781952,46.680443 145.571548,47.814827 140.466309,50.112293 
	C132.591400,53.656170 124.600060,56.963509 116.880386,60.816517 
	C114.595497,61.956936 111.951622,64.315567 111.374428,66.597176 
	C109.136627,75.442986 107.473785,84.451080 105.985039,93.462875 
	C105.167053,98.414421 107.638878,101.744904 111.752548,102.459541 
	C115.743446,103.152832 119.047775,100.726341 120.181602,95.865089 
	C121.502563,90.201515 123.006149,84.517601 123.568443,78.758347 
	C124.092674,73.388977 126.997276,71.321632 131.966934,70.493080 
	C131.827408,71.875343 131.792084,73.187492 131.550476,74.460480 
	C130.156357,81.805557 128.878525,89.178345 127.245544,96.471031 
	C125.184570,105.675125 127.801704,112.690895 135.784683,117.965347 
	C142.443970,122.365219 148.938370,127.060036 155.147659,132.068237 
	C157.041061,133.595383 158.574417,136.502701 158.846725,138.937424 
	C159.807251,147.525421 160.007370,156.195328 160.779770,164.808716 
	C161.227097,169.797165 164.995819,172.879150 169.487335,172.530685 
	C174.195999,172.165375 177.228470,168.869263 177.211472,163.793076 
	C177.198105,159.802872 176.880539,155.813690 176.670654,150.881973 
M140.195267,129.814804 
	C135.741165,126.378525 131.287064,122.942238 126.363876,119.144066 
	C121.196823,134.122208 116.160881,147.988159 111.804497,162.064423 
	C111.072739,164.428879 112.479988,168.442032 114.292717,170.408615 
	C118.491226,174.963470 125.424934,172.502090 127.835266,165.809357 
	C132.045883,154.117828 136.011185,142.337936 140.195267,129.814804 
M163.193512,13.037117 
	C153.670303,9.039002 144.791107,12.394711 141.535141,21.222427 
	C138.370407,29.802811 142.769623,38.807323 151.442841,41.501991 
	C158.399780,43.663433 166.187943,40.378422 169.606445,33.840683 
	C173.340744,26.699007 171.150101,18.878405 163.193512,13.037117 
M67.501251,115.712463 
	C78.332321,115.712509 89.167648,115.863564 99.990067,115.557678 
	C101.708809,115.509102 103.369431,113.404076 105.056931,112.249817 
	C103.428383,110.998222 101.818108,108.687767 100.168442,108.659286 
	C84.176666,108.383179 68.176765,108.392899 52.184223,108.643105 
	C50.652828,108.667061 48.119671,110.678284 47.855019,112.102158 
	C47.278999,115.201225 49.990963,115.699844 52.505314,115.706337 
	C57.170975,115.718369 61.836685,115.711334 67.501251,115.712463 
M178.257675,101.842873 
	C181.736252,102.680389 185.434311,102.596825 186.893692,99.053154 
	C187.875473,96.669212 188.099548,92.526588 186.679718,90.849083 
	C180.313965,83.328072 173.237564,76.408531 166.417618,69.271942 
	C164.401794,74.889038 163.559036,79.569214 163.020508,84.284126 
	C162.869720,85.604469 163.173264,87.456963 164.023422,88.330757 
	C168.406357,92.835548 173.034851,97.101440 178.257675,101.842873 
M78.153236,48.708763 
	C92.436676,48.710178 106.722290,48.827198 121.000694,48.559822 
	C122.696106,48.528072 124.352180,46.395824 126.026482,45.237232 
	C124.418968,43.987289 122.832603,41.685097 121.200623,41.652287 
	C106.922951,41.365246 92.635796,41.394604 78.355637,41.608742 
	C76.793800,41.632164 75.258286,43.410633 73.710564,44.375072 
	C74.911919,45.812321 76.113281,47.249569 78.153236,48.708763 
M88.348793,93.323814 
	C90.843040,93.294136 93.404488,93.593384 95.804626,93.103050 
	C97.103371,92.837723 99.174713,91.055260 99.045448,90.257179 
	C98.812340,88.817894 97.342094,87.416855 96.078453,86.376541 
	C95.467133,85.873276 94.152710,86.193336 93.156609,86.192818 
	C79.848114,86.185837 66.539619,86.188065 53.231125,86.188110 
	C50.542454,86.188126 47.312210,85.892578 47.225140,89.650192 
	C47.126293,93.916336 50.692444,93.301170 53.450012,93.309799 
	C64.762115,93.345222 76.074409,93.323822 88.348793,93.323814 
M70.596687,138.041565 
	C82.914810,138.040131 95.235634,138.160202 107.547661,137.885376 
	C109.108521,137.850540 110.623215,135.746902 112.159294,134.601715 
	C110.665169,133.412445 109.326736,131.836945 107.629059,131.152603 
	C106.196846,130.575272 104.347694,131.031601 102.683083,131.031601 
	C90.032036,131.031601 77.378418,130.912079 64.733231,131.184448 
	C63.160564,131.218323 61.632687,133.331543 60.084053,134.481277 
	C61.602730,135.665497 62.969452,137.229630 64.687012,137.916595 
	C66.122925,138.490921 67.969284,138.039032 70.596687,138.041565 
M101.140320,70.182693 
	C103.348473,66.220604 102.487228,64.117088 98.284370,64.078964 
	C84.849197,63.957062 71.410515,63.937565 57.978542,64.177559 
	C56.606945,64.202065 55.271358,66.241554 53.919060,67.346001 
	C55.186256,68.572151 56.443336,70.850861 57.722195,70.863144 
	C71.970428,71.000031 86.222023,70.786667 101.140320,70.182693 
z"/>
<path fill="#C70480" opacity="1.000000" stroke="none" 
	d="
M176.684387,151.353012 
	C176.880539,155.813690 177.198105,159.802872 177.211472,163.793076 
	C177.228470,168.869263 174.195999,172.165375 169.487335,172.530685 
	C164.995819,172.879150 161.227097,169.797165 160.779770,164.808716 
	C160.007370,156.195328 159.807251,147.525421 158.846725,138.937424 
	C158.574417,136.502701 157.041061,133.595383 155.147659,132.068237 
	C148.938370,127.060036 142.443970,122.365219 135.784683,117.965347 
	C127.801704,112.690895 125.184570,105.675125 127.245544,96.471031 
	C128.878525,89.178345 130.156357,81.805557 131.550476,74.460480 
	C131.792084,73.187492 131.827408,71.875343 131.966934,70.493080 
	C126.997276,71.321632 124.092674,73.388977 123.568443,78.758347 
	C123.006149,84.517601 121.502563,90.201515 120.181602,95.865089 
	C119.047775,100.726341 115.743446,103.152832 111.752548,102.459541 
	C107.638878,101.744904 105.167053,98.414421 105.985039,93.462875 
	C107.473785,84.451080 109.136627,75.442986 111.374428,66.597176 
	C111.951622,64.315567 114.595497,61.956936 116.880386,60.816517 
	C124.600060,56.963509 132.591400,53.656170 140.466309,50.112293 
	C145.571548,47.814827 150.781952,46.680443 155.546875,50.498222 
	C160.464355,54.438225 161.307846,60.088779 160.458786,65.926537 
	C159.286926,73.983673 157.764877,81.989632 156.414078,90.021088 
	C155.504181,95.431183 154.399094,100.825363 153.879852,106.274170 
	C153.719971,107.951965 154.723389,110.366615 156.022995,111.444618 
	C160.626770,115.263405 165.904846,118.306808 170.287399,122.339561 
	C172.616333,124.482620 174.527664,127.906029 175.048431,131.015930 
	C176.141861,137.545380 176.192139,144.249542 176.684387,151.353012 
z"/>
<path fill="#C80782" opacity="1.000000" stroke="none" 
	d="
M140.137283,130.204941 
	C136.011185,142.337936 132.045883,154.117828 127.835266,165.809357 
	C125.424934,172.502090 118.491226,174.963470 114.292717,170.408615 
	C112.479988,168.442032 111.072739,164.428879 111.804497,162.064423 
	C116.160881,147.988159 121.196823,134.122208 126.363876,119.144066 
	C131.287064,122.942238 135.741165,126.378525 140.137283,130.204941 
z"/>
<path fill="#C70480" opacity="1.000000" stroke="none" 
	d="
M163.533966,13.207146 
	C171.150101,18.878405 173.340744,26.699007 169.606445,33.840683 
	C166.187943,40.378422 158.399780,43.663433 151.442841,41.501991 
	C142.769623,38.807323 138.370407,29.802811 141.535141,21.222427 
	C144.791107,12.394711 153.670303,9.039002 163.533966,13.207146 
z"/>
<path fill="#CA1187" opacity="1.000000" stroke="none" 
	d="
M67.001816,115.712357 
	C61.836685,115.711334 57.170975,115.718369 52.505314,115.706337 
	C49.990963,115.699844 47.278999,115.201225 47.855019,112.102158 
	C48.119671,110.678284 50.652828,108.667061 52.184223,108.643105 
	C68.176765,108.392899 84.176666,108.383179 100.168442,108.659286 
	C101.818108,108.687767 103.428383,110.998222 105.056931,112.249817 
	C103.369431,113.404076 101.708809,115.509102 99.990067,115.557678 
	C89.167648,115.863564 78.332321,115.712509 67.001816,115.712357 
z"/>
<path fill="#C80882" opacity="1.000000" stroke="none" 
	d="
M177.917664,101.646790 
	C173.034851,97.101440 168.406357,92.835548 164.023422,88.330757 
	C163.173264,87.456963 162.869720,85.604469 163.020508,84.284126 
	C163.559036,79.569214 164.401794,74.889038 166.417618,69.271942 
	C173.237564,76.408531 180.313965,83.328072 186.679718,90.849083 
	C188.099548,92.526588 187.875473,96.669212 186.893692,99.053154 
	C185.434311,102.596825 181.736252,102.680389 177.917664,101.646790 
z"/>
<path fill="#CB1187" opacity="1.000000" stroke="none" 
	d="
M77.733932,48.697792 
	C76.113281,47.249569 74.911919,45.812321 73.710564,44.375072 
	C75.258286,43.410633 76.793800,41.632164 78.355637,41.608742 
	C92.635796,41.394604 106.922951,41.365246 121.200623,41.652287 
	C122.832603,41.685097 124.418968,43.987289 126.026482,45.237236 
	C124.352180,46.395824 122.696106,48.528072 121.000694,48.559822 
	C106.722290,48.827198 92.436676,48.710178 77.733932,48.697792 
z"/>
<path fill="#CA0D85" opacity="1.000000" stroke="none" 
	d="
M87.867706,93.323578 
	C76.074409,93.323822 64.762115,93.345222 53.450012,93.309799 
	C50.692444,93.301170 47.126293,93.916336 47.225140,89.650192 
	C47.312210,85.892578 50.542454,86.188126 53.231125,86.188110 
	C66.539619,86.188065 79.848114,86.185837 93.156609,86.192818 
	C94.152710,86.193336 95.467133,85.873276 96.078453,86.376541 
	C97.342094,87.416855 98.812340,88.817894 99.045448,90.257179 
	C99.174713,91.055260 97.103371,92.837723 95.804626,93.103050 
	C93.404488,93.593384 90.843040,93.294136 87.867706,93.323578 
z"/>
<path fill="#C80581" opacity="1.000000" stroke="none" 
	d="
M70.115288,138.041565 
	C67.969284,138.039032 66.122925,138.490921 64.687012,137.916595 
	C62.969452,137.229630 61.602730,135.665497 60.084053,134.481277 
	C61.632687,133.331543 63.160564,131.218323 64.733231,131.184448 
	C77.378418,130.912079 90.032036,131.031601 102.683083,131.031601 
	C104.347694,131.031601 106.196846,130.575272 107.629059,131.152603 
	C109.326736,131.836945 110.665169,133.412445 112.159294,134.601715 
	C110.623215,135.746902 109.108521,137.850540 107.547661,137.885376 
	C95.235634,138.160202 82.914810,138.040131 70.115288,138.041565 
z"/>
<path fill="#C80682" opacity="1.000000" stroke="none" 
	d="
M100.806519,70.425232 
	C86.222023,70.786667 71.970428,71.000031 57.722195,70.863144 
	C56.443336,70.850861 55.186256,68.572151 53.919060,67.346001 
	C55.271358,66.241554 56.606945,64.202065 57.978542,64.177559 
	C71.410515,63.937565 84.849197,63.957062 98.284370,64.078964 
	C102.487228,64.117088 103.348473,66.220604 100.806519,70.425232 
z"/>
</svg>